<svg width="30" height="31" viewBox="0 0 30 31" fill="none" xmlns="http://www.w3.org/2000/svg">
<g clip-path="url(#clip0_1_56)">
<g clip-path="url(#clip1_1_56)">
<path d="M14.9996 0.413574C6.71117 0.413574 -0.0332031 7.15607 -0.0332031 15.4454C-0.0332031 23.7348 6.71117 30.4773 14.9996 30.4773C23.288 30.4773 30.0324 23.7348 30.0324 15.4454C30.0324 7.15607 23.288 0.413574 14.9996 0.413574ZM14.9996 29.4761C7.26336 29.4761 0.969922 23.1817 0.969922 15.4454C0.969922 7.7092 7.26336 1.41482 14.9996 1.41482C22.7359 1.41482 29.0293 7.7092 29.0293 15.4454C29.0293 23.1817 22.7359 29.4761 14.9996 29.4761Z" fill="#00E5CC"/>
<path d="M23.2429 10.8008C23.3469 10.6083 23.4326 10.4065 23.4989 10.198C23.5295 10.1013 23.5302 9.99756 23.5006 9.90048C23.4711 9.80341 23.4129 9.71757 23.3335 9.6543C23.2542 9.59103 23.1576 9.5533 23.0564 9.5461C22.9552 9.53889 22.8542 9.56255 22.7667 9.61396C22.2863 9.89934 21.7663 10.112 21.2236 10.2449C20.5647 9.65031 19.7091 9.32068 18.8217 9.31958C18.3395 9.31995 17.8624 9.41767 17.419 9.60689C16.9755 9.7961 16.5748 10.0729 16.2409 10.4207C15.907 10.7685 15.6468 11.1802 15.4759 11.631C15.3049 12.0818 15.2267 12.5625 15.2461 13.0443C13.1376 12.7788 11.2123 11.7119 9.8695 10.0649C9.81805 10.0025 9.7523 9.95344 9.67783 9.92189C9.60337 9.89034 9.52238 9.87722 9.44177 9.88367C9.36115 9.89011 9.28328 9.91591 9.21477 9.95889C9.14626 10.0019 9.08913 10.0607 9.04825 10.1305C8.74077 10.6583 8.57364 11.256 8.56281 11.8667C8.55198 12.4774 8.6978 13.0806 8.98637 13.619C8.9156 13.6309 8.84761 13.6557 8.78575 13.6921C8.70995 13.7404 8.64754 13.8071 8.60428 13.8859C8.56103 13.9647 8.53832 14.0531 8.53825 14.143C8.53825 15.2071 9.01168 16.184 9.77481 16.8477L9.742 16.8805C9.68438 16.9457 9.64475 17.0248 9.62699 17.1099C9.60924 17.1951 9.61398 17.2834 9.64075 17.3661C9.79988 17.8626 10.0656 18.3182 10.4193 18.7012C10.7729 19.0842 11.206 19.3853 11.6882 19.5833C10.6979 20.0665 9.58952 20.2549 8.49512 20.1261C8.38263 20.1147 8.26951 20.1409 8.17348 20.2006C8.07746 20.2603 8.00396 20.3502 7.9645 20.4561C7.9266 20.5629 7.92589 20.6793 7.96248 20.7865C7.99907 20.8938 8.07081 20.9855 8.16606 21.0468C9.65388 22.0017 11.3847 22.509 13.1526 22.5083C18.9464 22.5083 22.4095 17.8021 22.4095 13.2524L22.4086 13.0986C22.9701 12.6603 23.4578 12.1349 23.8532 11.5424C23.9131 11.4528 23.9426 11.3463 23.9372 11.2387C23.9319 11.1311 23.892 11.0281 23.8236 10.9449C23.7551 10.8617 23.6616 10.8028 23.5571 10.7768C23.4525 10.7509 23.3424 10.7593 23.2429 10.8008ZM21.607 12.4461C21.539 12.4951 21.4843 12.5602 21.4479 12.6357C21.4116 12.7112 21.3947 12.7946 21.3989 12.8783C21.4045 13.0021 21.4073 13.1277 21.4073 13.2515C21.4073 17.309 18.3201 21.5061 13.1536 21.5061C12.2321 21.5066 11.3171 21.3519 10.447 21.0486C11.4891 20.8489 12.4681 20.402 13.3017 19.7455C13.3828 19.6815 13.4422 19.5941 13.4718 19.495C13.5013 19.396 13.4995 19.2903 13.4667 19.1923C13.4339 19.0943 13.3716 19.0089 13.2884 18.9476C13.2051 18.8864 13.105 18.8524 13.0017 18.8502C12.5975 18.8425 12.2007 18.7399 11.8434 18.5506C11.4861 18.3614 11.1783 18.0909 10.9448 17.7608C11.182 17.7449 11.4145 17.7055 11.6404 17.6446C11.7498 17.6153 11.846 17.5499 11.9133 17.4589C11.9807 17.3679 12.0152 17.2568 12.0113 17.1437C12.0074 17.0305 11.9653 16.9221 11.8918 16.836C11.8183 16.7499 11.7178 16.6912 11.6067 16.6696C11.1501 16.5767 10.7274 16.3615 10.3838 16.0469C10.0401 15.7323 9.78849 15.3302 9.65575 14.8836C9.90512 14.9465 10.1611 14.983 10.417 14.9915C10.6373 14.9905 10.8417 14.8555 10.9101 14.6436C10.9786 14.4318 10.8979 14.1983 10.7114 14.0746C10.2703 13.7807 9.93061 13.3578 9.73882 12.8636C9.54703 12.3695 9.51246 11.8282 9.63981 11.3136C11.2683 12.9846 13.4672 13.9796 15.7973 14.0999C15.9623 14.1008 16.1067 14.0418 16.207 13.9208C16.3073 13.7999 16.3457 13.6396 16.3101 13.4858C16.1819 12.9336 16.2393 12.3546 16.4733 11.8383C16.7073 11.322 17.105 10.8972 17.6048 10.6297C18.1046 10.3622 18.6786 10.2668 19.2381 10.3585C19.7975 10.4501 20.3111 10.7235 20.6995 11.1365C20.7577 11.1986 20.8308 11.2448 20.9118 11.2709C20.9928 11.297 21.0791 11.302 21.1626 11.2855C21.3173 11.2546 21.4701 11.219 21.6211 11.1777C21.553 11.2286 21.4823 11.2759 21.4092 11.3193C21.312 11.3788 21.2379 11.4697 21.1993 11.577C21.1607 11.6842 21.1597 11.8014 21.1966 11.9093C21.2335 12.0172 21.3061 12.1093 21.4023 12.1704C21.4985 12.2315 21.6127 12.258 21.7261 12.2455L21.8967 12.224C21.8027 12.3014 21.7061 12.3755 21.607 12.4461Z" fill="#00E5CC"/>
<path d="M13 19.4451C13.4 20.2451 11.0005 20.7784 10.0005 20.9451C14.0001 22.9451 18.5002 20.1117 20.0005 18.4451V17.9451C21.6005 17.1451 21.6671 14.2784 21.5005 12.9451L22.5005 12.4451L22.0005 11.4451L21.5005 10.9451L18.5005 9.94507L17.5005 10.4451L16.5005 11.4451L16.0005 12.4451V13.9451C13.6005 14.3451 10.6668 12.1117 9.5 10.9451C8.7 11.7451 9.5 13.2784 10 13.9451L9.5 14.4451V15.4451C10.1667 15.9451 10.9005 17.0451 10.5005 17.4451C10.1005 17.8451 12.1667 18.9451 13 19.4451Z" fill="#00E5CC"/>
</g>
</g>
<defs>
<clipPath id="clip0_1_56">
<rect width="30" height="30" fill="white" transform="translate(0 0.445312)"/>
</clipPath>
<clipPath id="clip1_1_56">
<rect width="30" height="30" fill="white" transform="translate(0 0.445312)"/>
</clipPath>
</defs>
</svg>
